<svg xmlns="http://www.w3.org/2000/svg" version="1.1" xmlns:xlink="http://www.w3.org/1999/xlink" xmlns:svgjs="http://svgjs.dev/svgjs" width="1000" height="750" viewBox="0 0 1000 750"><rect width="1000" height="750" fill="#ffffff"></rect><g transform="matrix(0.584,0,0,0.584,208,83)"><svg viewBox="0 0 280 280" data-background-color="#ffffff" preserveAspectRatio="xMidYMid meet" height="1000" width="1000" xmlns="http://www.w3.org/2000/svg" xmlns:xlink="http://www.w3.org/1999/xlink"><defs></defs><g id="tight-bounds" transform="matrix(1,0,0,1,0,0)"><svg viewBox="0 0 280 280" height="280" width="280"><g><svg viewBox="0 0 280 280" height="280" width="280"><g><svg viewBox="0 0 280 280" height="280" width="280"><g><svg viewBox="0 0 280 280" height="280" width="280"><g><svg viewBox="0 0 280 280" height="280" width="280"><g transform="matrix(1,0,0,1,80.99741344934982,74.00336708925556)"><svg viewBox="0 0 118.00517310130036 131.99326582148888" height="131.99326582148888" width="118.00517310130036"><g><svg xmlns="http://www.w3.org/2000/svg" xmlns:xlink="http://www.w3.org/1999/xlink" version="1.1" x="0" y="0" viewBox="18.134002685546875 19.195999145507812 56.11164093017578 62.76300048828125" enable-background="new 0 0 100 100" xml:space="preserve" height="131.99326582148888" width="118.00517310130036" class="icon-o-0" data-fill-palette-color="accent" id="o-0"><path fill="#e8772e" d="M74.245 21.972c0-1.518-1.231-2.749-2.75-2.749l-36.412-0.027c-1.519 0-2.748 1.231-2.748 2.749v37.964c-0.949-0.263-1.947-0.399-2.979-0.399-6.198 0-11.222 5.024-11.222 11.223 0 6.199 5.024 11.226 11.222 11.226 6.046 0 11.215-4.677 11.215-10.769 0.007-0.073 0.022-30.853 0.022-30.853 0.01-0.791 0.651-1.429 1.445-1.429l-0.001-0.001 22.602 0.01C65.398 38.962 66 39.585 66 40.355l0.005-0.017v17.051c-0.948-0.262-1.946-0.397-2.978-0.397-6.198 0-11.226 5.022-11.226 11.223 0 6.198 5.025 11.226 11.226 11.226 6.045 0 10.974-4.78 11.214-10.769C74.248 68.598 74.245 21.972 74.245 21.972z" data-fill-palette-color="accent"></path></svg></g></svg></g><path d="M21.117 108.164l-4.551-1.633-6.318-2.394c-0.655-0.235-1.776-0.609-3.361-1.122v0c-0.721-0.23-1.383-0.123-1.986 0.323-0.604 0.446-1.059 1.057-1.367 1.835v0c-0.141 0.393-0.43 0.512-0.867 0.355v0c-0.343-0.123-0.392-0.528-0.146-1.215v0l0.431-0.966 3.394-8.897 2.494-7.392c0.168-0.468 0.533-0.601 1.095-0.4v0c0.144 0.052 0.601 0.3 1.371 0.746 0.766 0.437 1.383 0.74 1.852 0.907v0c0.78 0.28 1.102 0.61 0.965 0.992-0.137 0.381-0.498 0.466-1.085 0.255-0.587-0.211-1.223-0.206-1.907 0.013-0.693 0.223-1.162 0.636-1.407 1.239v0c-0.959 2.143-1.65 3.802-2.071 4.976v0l-0.343 0.955c-0.457 1.274-0.637 2.04-0.54 2.3v0c0.188 0.476 2.83 1.629 7.924 3.457v0c1.224 0.439 1.931 0.432 2.121-0.021v0l1.291-3.596c0.529-1.473 0.831-2.471 0.905-2.994v0c0.214-1.361-0.161-2.309-1.124-2.845v0c-0.391-0.225-0.543-0.459-0.456-0.703 0.09-0.25 0.181-0.386 0.273-0.409 0.084-0.019 0.251 0.016 0.501 0.106v0l3.745 1.671 2.287 0.695c0.612 0.22 0.886 0.417 0.824 0.591v0c-0.132 0.368-0.525 0.53-1.179 0.486v0c-1.147-0.024-1.856 0.067-2.127 0.273v0c-0.527 0.389-1.019 1.22-1.476 2.493v0l-0.951 2.65-0.448 1.16-0.094 0.263c-0.358 0.999-0.307 1.581 0.155 1.747v0l5.264 1.973 1.47 0.528c1.76 0.632 2.839 0.68 3.235 0.146 0.402-0.532 0.683-1.02 0.842-1.463v0c1.317-3.671 1.977-6.432 1.98-8.285v0c-0.026-1.637-0.275-2.72-0.748-3.249v0c-0.506-0.513-0.716-0.891-0.628-1.134v0c0.105-0.293 0.367-0.365 0.785-0.215v0c1.055 0.379 1.931 1.285 2.629 2.719 0.701 1.443 0.911 2.557 0.628 3.344v0c-0.632 1.76-1.408 3.726-2.328 5.897-0.92 2.171-1.477 3.525-1.669 4.063v0l-1.454 5.112c-0.186 0.518-0.404 0.732-0.653 0.642v0l-0.441-0.158c-0.144-0.052-0.196-0.211-0.155-0.478v0c0.071-0.277 0.074-0.745 0.006-1.404-0.067-0.658-0.495-1.231-1.285-1.719-0.794-0.496-2.562-1.236-5.302-2.22zM43.171 66.107l-3.621-3.205-4.979-4.566c-0.521-0.462-1.423-1.224-2.705-2.288v0c-0.584-0.481-1.239-0.627-1.965-0.437-0.726 0.19-1.277 0.487-1.651 0.89-0.37 0.398-0.61 0.594-0.719 0.587-0.114-0.012-0.237-0.077-0.371-0.196v0c-0.353-0.312-0.296-0.731 0.17-1.258v0l0.758-0.737 2.361-2.441 2.604-3.169c0.294-0.333 0.539-0.413 0.733-0.242v0c0.273 0.242 0.351 0.519 0.234 0.832-0.122 0.308-0.294 0.617-0.515 0.926-0.221 0.309-0.249 0.772-0.084 1.387 0.169 0.619 0.626 1.294 1.371 2.023 0.74 0.725 2.829 2.658 6.266 5.799 3.434 3.145 5.357 4.9 5.77 5.265v0l1.169 1.036c1.401 1.24 2.384 1.685 2.95 1.335 0.571-0.345 1.013-0.694 1.325-1.046v0c2.585-2.92 4.213-5.23 4.884-6.93v0c0.601-1.55 0.771-2.648 0.511-3.295v0c-0.263-0.684-0.308-1.123-0.137-1.316v0c0.207-0.233 0.476-0.203 0.809 0.091v0c0.839 0.743 1.317 1.91 1.433 3.5 0.116 1.6-0.1 2.71-0.649 3.331v0c-1.244 1.406-2.696 2.946-4.356 4.621-1.66 1.675-2.679 2.726-3.057 3.154v0l-2.992 3.862c-0.501 0.566-0.868 0.746-1.102 0.539v0c-0.139-0.123-0.202-0.277-0.19-0.461 0.003-0.183 0.092-0.374 0.268-0.573 0.171-0.194 0.277-0.548 0.316-1.062 0.043-0.519-0.229-1.182-0.819-1.987-0.594-0.8-1.934-2.123-4.02-3.969zM79.29 35.214l-2.173-4.319-2.93-6.088c-0.313-0.622-0.867-1.665-1.663-3.128v0c-0.364-0.663-0.918-1.042-1.662-1.135-0.745-0.093-1.496 0.036-2.255 0.388v0c-0.373 0.188-0.664 0.074-0.873-0.34v0c-0.164-0.326 0.08-0.653 0.731-0.981v0l0.978-0.403 8.59-4.11 6.9-3.64c0.444-0.224 0.801-0.069 1.069 0.465v0c0.069 0.136 0.229 0.631 0.48 1.484 0.254 0.845 0.493 1.489 0.717 1.934v0c0.373 0.741 0.378 1.202 0.017 1.384-0.361 0.182-0.682-0.006-0.962-0.563-0.28-0.557-0.744-0.992-1.392-1.304-0.656-0.316-1.281-0.339-1.873-0.071v0c-2.172 0.892-3.815 1.619-4.929 2.179v0l-0.906 0.456c-1.209 0.608-1.867 1.04-1.977 1.296v0c-0.192 0.475 0.929 3.13 3.362 7.964v0c0.584 1.161 1.102 1.643 1.552 1.447v0l3.412-1.718c1.398-0.704 2.305-1.219 2.719-1.546v0c1.092-0.839 1.474-1.785 1.146-2.837v0c-0.129-0.433-0.077-0.707 0.153-0.824 0.237-0.119 0.397-0.155 0.48-0.108 0.074 0.044 0.171 0.185 0.291 0.422v0l1.562 3.791 1.18 2.08c0.292 0.581 0.355 0.913 0.189 0.996v0c-0.35 0.176-0.746 0.023-1.189-0.46v0c-0.815-0.808-1.391-1.23-1.729-1.268v0c-0.65-0.081-1.579 0.182-2.788 0.79v0l-2.515 1.266-1.124 0.532-0.249 0.125c-0.948 0.477-1.312 0.935-1.091 1.374v0l2.456 5.056 0.702 1.396c0.841 1.671 1.589 2.449 2.244 2.334 0.658-0.108 1.198-0.269 1.618-0.48v0c3.484-1.753 5.865-3.3 7.142-4.641v0c1.109-1.204 1.675-2.161 1.697-2.87v0c-0.014-0.721 0.095-1.139 0.326-1.255v0c0.278-0.14 0.518-0.012 0.717 0.385v0c0.504 1.001 0.514 2.262 0.032 3.782-0.486 1.529-1.102 2.481-1.848 2.857v0c-1.671 0.841-3.588 1.731-5.75 2.671-2.163 0.94-3.499 1.538-4.009 1.794v0l-4.576 2.703c-0.492 0.247-0.797 0.253-0.916 0.016v0l-0.21-0.418c-0.069-0.136 0.004-0.288 0.217-0.454v0c0.243-0.152 0.567-0.489 0.971-1.012 0.405-0.523 0.489-1.234 0.253-2.132-0.234-0.907-1.005-2.661-2.314-5.262zM142.797 0.363l2.456-0.093 3.462-0.267c0.49-0.027 0.745 0.142 0.765 0.506v0c0.015 0.285-0.255 0.572-0.81 0.861v0c-0.226 0.119-0.486 0.355-0.779 0.71-0.293 0.355-0.544 0.81-0.753 1.366v0l-7.611 20.259c-0.547 1.438-1.012 2.708-1.398 3.812-0.386 1.097-0.611 1.714-0.677 1.85-0.072 0.137-0.175 0.209-0.307 0.215v0c-0.464 0.025-1.087-0.815-1.87-2.519-0.783-1.705-2.011-4.139-3.683-7.303-1.666-3.164-2.952-5.636-3.859-7.413-0.9-1.771-1.548-3.078-1.945-3.919-0.397-0.835-0.77-1.582-1.118-2.242v0c-0.531-1.094-1.003-1.842-1.417-2.244-0.414-0.409-0.865-0.704-1.353-0.883-0.495-0.186-0.885-0.271-1.169-0.256v0c-0.726 0.092-1.102-0.12-1.131-0.636v0c-0.02-0.364 0.335-0.566 1.063-0.606v0l4.3-0.083 2.529-0.207c0.596-0.032 0.958-0.029 1.087 0.011 0.135 0.046 0.208 0.155 0.217 0.327 0.009 0.166-0.112 0.322-0.363 0.468v0c-0.785 0.461-1.167 0.903-1.144 1.327 0.023 0.43 0.091 0.819 0.203 1.165 0.112 0.346 0.343 0.875 0.693 1.587 0.35 0.705 0.708 1.413 1.072 2.124 0.364 0.711 0.961 1.858 1.79 3.44 0.823 1.583 1.628 3.147 2.416 4.691v0c2.457 4.895 3.891 7.332 4.301 7.309v0c0.132-0.007 0.796-1.617 1.991-4.83 1.194-3.22 2.361-6.577 3.499-10.073 1.139-3.502 1.694-5.512 1.667-6.028-0.028-0.523-0.197-0.886-0.507-1.089-0.317-0.209-0.642-0.327-0.976-0.355v0c-0.946-0.055-1.428-0.238-1.445-0.55v0c-0.01-0.185 0.03-0.297 0.122-0.335 0.091-0.045 0.318-0.077 0.682-0.097zM174.713 33.059l-3.037-1.137-3.208-0.988c-0.711-0.256-1.014-0.531-0.909-0.824v0c0.124-0.343 0.392-0.511 0.806-0.503v0c0.892-0.01 1.814-0.418 2.767-1.223 0.951-0.799 3.53-3.338 7.738-7.617 4.214-4.276 7.943-8.04 11.188-11.291v0c0.301-0.307 0.538-0.486 0.711-0.536 0.171-0.044 0.384-0.02 0.641 0.072 0.256 0.092 0.404 0.199 0.445 0.319 0.033 0.125 0.048 0.504 0.045 1.137-0.011 0.638-0.014 1.123-0.007 1.457 0 0.331 0.006 0.873 0.017 1.625 0.007 0.743 0.041 1.872 0.1 3.388 0.06 1.516 0.245 4.854 0.557 10.015 0.313 5.154 0.509 8.083 0.586 8.788 0.077 0.705 0.297 1.366 0.66 1.983 0.356 0.615 0.718 1.01 1.085 1.184 0.367 0.175 0.664 0.349 0.89 0.522 0.224 0.18 0.284 0.416 0.178 0.709v0c-0.133 0.368-0.53 0.433-1.191 0.195v0l-3.223-1.416-3.47-1.082c-0.755-0.272-1.227-0.478-1.417-0.616-0.183-0.137-0.24-0.302-0.17-0.495 0.07-0.193 0.222-0.311 0.455-0.354 0.24-0.04 0.476-0.04 0.708 0.001 0.23 0.048 0.478 0.014 0.745-0.101 0.259-0.111 0.466-0.382 0.621-0.813 0.153-0.424 0.224-1.58 0.213-3.466-0.011-1.886-0.085-3.295-0.221-4.225v0c-0.068-0.497-0.491-0.886-1.272-1.167v0l-4.472-1.528-1.947-0.702c-1.098-0.396-1.809-0.585-2.132-0.568-0.326 0.024-0.653 0.198-0.982 0.524-0.323 0.328-0.78 0.776-1.374 1.345-0.595 0.575-1.003 0.974-1.224 1.198-0.215 0.226-0.486 0.516-0.811 0.871v0c-0.584 0.622-0.963 1.176-1.139 1.662-0.178 0.493-0.179 0.937-0.004 1.331 0.181 0.397 0.431 0.681 0.75 0.852v0c0.886 0.397 1.258 0.792 1.117 1.185v0c-0.061 0.168-0.144 0.283-0.251 0.344-0.106 0.06-0.294 0.042-0.562-0.055zM188.071 14.196c-0.225-0.081-1.41 1.018-3.558 3.297-2.147 2.279-3.273 3.565-3.379 3.858-0.106 0.293-0.063 0.517 0.129 0.67 0.191 0.154 0.693 0.377 1.503 0.669v0l1.133 0.408 3.504 1.221c0.955 0.344 1.496 0.338 1.625-0.017 0.128-0.356 0.08-2.1-0.144-5.234-0.23-3.136-0.501-4.76-0.813-4.872zM231.898 31.434c0.248 0.23 0.991 0.989 2.229 2.279 1.233 1.285 3.767 3.702 7.603 7.252 3.841 3.554 6.215 5.642 7.121 6.264v0c0.214 0.198 0.304 0.39 0.269 0.574-0.026 0.184-0.084 0.325-0.174 0.422v0l-1.974 2.47c-0.446 0.482-0.752 0.759-0.918 0.831-0.171 0.068-0.351 0.014-0.542-0.162v0c-0.156-0.144-0.105-0.458 0.154-0.942 0.253-0.489 0.421-0.889 0.502-1.202v0c0.172-0.762-0.43-1.781-1.808-3.056v0l-3.717-3.439c-0.458-0.423-0.823-0.595-1.097-0.514-0.274 0.081-0.809 0.552-1.606 1.414v0l-1.298 1.402-9.776 10.405-1.752 1.835c-0.761 0.823-1.128 1.478-1.1 1.965 0.028 0.487 0.137 0.931 0.327 1.332 0.19 0.41 0.382 0.72 0.578 0.928v0c0.499 0.534 0.607 0.955 0.323 1.261v0c-0.194 0.209-0.366 0.298-0.517 0.267-0.147-0.027-0.354-0.165-0.622-0.413v0l-2.96-3.172-3.11-2.499c-0.706-0.653-0.917-1.133-0.633-1.439v0c0.176-0.19 0.351-0.267 0.526-0.232 0.18 0.04 0.456 0.191 0.827 0.454 0.381 0.262 0.627 0.426 0.737 0.492v0c0.796 0.448 1.513 0.401 2.149-0.14v0c1.749-1.499 5.184-5.017 10.306-10.551v0l4.714-5.154c0.338-0.365 0.443-0.688 0.314-0.969-0.138-0.281-0.798-0.969-1.981-2.064-1.183-1.095-2.149-1.916-2.897-2.464-0.744-0.553-1.206-0.85-1.387-0.89-0.175-0.035-0.442-0.025-0.801 0.032-0.354 0.061-0.713 0.18-1.077 0.358-0.359 0.183-0.637 0.342-0.834 0.476v0c-0.464 0.384-0.847 0.436-1.148 0.157v0c-0.214-0.198-0.17-0.46 0.131-0.786v0c0.703-0.759 1.391-1.406 2.065-1.939 0.669-0.528 1.054-0.836 1.154-0.925 0.095-0.083 0.161-0.135 0.198-0.155 0.032-0.025 0.084-0.067 0.157-0.126 0.073-0.059 0.132-0.094 0.179-0.106 0.042-0.006 0.1-0.02 0.175-0.042 0.074-0.022 0.14-0.024 0.196-0.007 0.057 0.017 0.121 0.04 0.193 0.07v0c0.153 0.069 0.353 0.219 0.602 0.448zM253.01 86.436l4.397-2.009 6.194-2.699c0.633-0.289 1.696-0.804 3.189-1.544v0c0.677-0.338 1.076-0.878 1.196-1.619 0.121-0.741 0.02-1.497-0.303-2.267v0c-0.174-0.38-0.049-0.667 0.373-0.86v0c0.332-0.152 0.649 0.104 0.953 0.768v0l0.365 0.992 3.785 8.739 3.377 7.032c0.207 0.452 0.039 0.803-0.505 1.051v0c-0.139 0.063-0.639 0.205-1.501 0.424-0.854 0.222-1.507 0.437-1.96 0.643v0c-0.754 0.345-1.215 0.333-1.383-0.035-0.168-0.368 0.031-0.682 0.598-0.941 0.567-0.259 1.019-0.706 1.356-1.341 0.34-0.644 0.387-1.267 0.142-1.869v0c-0.81-2.204-1.474-3.873-1.992-5.007v0l-0.422-0.923c-0.562-1.231-0.969-1.905-1.22-2.024v0c-0.468-0.209-3.163 0.81-8.086 3.059v0c-1.182 0.54-1.684 1.039-1.503 1.496v0l1.587 3.475c0.65 1.424 1.131 2.349 1.443 2.776v0c0.798 1.123 1.728 1.54 2.792 1.251v0c0.437-0.112 0.71-0.051 0.817 0.184 0.11 0.241 0.14 0.403 0.09 0.484-0.047 0.073-0.191 0.164-0.433 0.274v0l-3.847 1.419-2.122 1.101c-0.591 0.27-0.925 0.321-1.003 0.152v0c-0.163-0.356 0.005-0.746 0.504-1.171v0c0.838-0.784 1.282-1.344 1.333-1.681v0c0.106-0.646-0.122-1.585-0.685-2.815v0l-1.17-2.561-0.49-1.144-0.115-0.253c-0.441-0.965-0.885-1.346-1.331-1.142v0l-5.146 2.263-1.421 0.649c-1.701 0.777-2.507 1.495-2.417 2.155 0.084 0.662 0.223 1.207 0.419 1.635v0c1.621 3.547 3.077 5.985 4.368 7.312v0c1.162 1.154 2.096 1.755 2.804 1.804v0c0.721 0.013 1.135 0.138 1.242 0.373v0c0.13 0.284-0.008 0.518-0.412 0.702v0c-1.02 0.466-2.28 0.429-3.78-0.11-1.509-0.543-2.438-1.194-2.785-1.955v0c-0.777-1.701-1.595-3.65-2.452-5.847-0.858-2.197-1.405-3.555-1.643-4.073v0l-2.529-4.674c-0.229-0.501-0.222-0.806 0.019-0.917v0l0.425-0.194c0.139-0.063 0.287 0.015 0.446 0.234v0c0.143 0.248 0.468 0.585 0.975 1.009 0.507 0.424 1.214 0.535 2.121 0.333 0.915-0.199 2.697-0.904 5.346-2.114zM22.442 181.926l4.614-1.662 6.471-2.204c0.674-0.243 1.794-0.675 3.361-1.295v0c0.715-0.286 1.162-0.796 1.342-1.53 0.184-0.743 0.145-1.515-0.116-2.317v0c-0.142-0.393 0.009-0.669 0.453-0.829v0c0.349-0.126 0.649 0.158 0.898 0.85v0l0.286 1.029 3.083 9.146 2.834 7.397c0.169 0.468-0.031 0.804-0.599 1.009v0c-0.15 0.054-0.667 0.156-1.551 0.304-0.89 0.151-1.569 0.311-2.037 0.48v0c-0.792 0.285-1.257 0.238-1.394-0.142-0.139-0.387 0.087-0.687 0.68-0.901 0.593-0.214 1.088-0.628 1.487-1.244 0.39-0.62 0.486-1.243 0.289-1.87v0c-0.63-2.297-1.16-4.041-1.589-5.233v0l-0.348-0.964c-0.465-1.292-0.821-2.006-1.067-2.143v0c-0.453-0.26-3.26 0.54-8.421 2.399v0c-1.242 0.447-1.79 0.913-1.644 1.396v0l1.315 3.65c0.535 1.485 0.942 2.459 1.222 2.923v0c0.713 1.196 1.621 1.693 2.727 1.492v0c0.445-0.076 0.713 0.011 0.802 0.261 0.09 0.25 0.106 0.413 0.05 0.489-0.057 0.077-0.207 0.159-0.451 0.247v0l-4.02 1.11-2.234 0.932c-0.618 0.223-0.958 0.246-1.021 0.071v0c-0.135-0.374 0.063-0.756 0.592-1.144v0c0.918-0.719 1.416-1.247 1.492-1.584v0c0.161-0.65 0.009-1.618-0.454-2.903v0l-0.968-2.686-0.39-1.202-0.095-0.262c-0.366-1.017-0.787-1.44-1.261-1.27v0l-5.381 1.854-1.488 0.536c-1.791 0.645-2.667 1.306-2.627 1.983 0.031 0.673 0.127 1.234 0.289 1.683v0c1.34 3.719 2.606 6.305 3.799 7.757v0c1.075 1.262 1.967 1.949 2.677 2.06v0c0.732 0.075 1.142 0.234 1.229 0.477v0c0.108 0.3-0.05 0.526-0.474 0.679v0c-1.067 0.384-2.339 0.24-3.815-0.434-1.476-0.674-2.357-1.407-2.643-2.2v0c-0.643-1.785-1.306-3.823-1.991-6.114-0.684-2.291-1.125-3.712-1.323-4.26v0l-2.158-4.933c-0.189-0.524-0.158-0.831 0.091-0.922v0l0.45-0.161c0.144-0.052 0.285 0.038 0.425 0.27v0c0.124 0.266 0.425 0.633 0.904 1.101 0.481 0.475 1.188 0.647 2.121 0.516 0.935-0.125 2.794-0.689 5.577-1.692zM44.186 223.444l3.672-3.252 5.195-4.443c0.536-0.475 1.417-1.291 2.644-2.447v0c0.558-0.53 0.785-1.169 0.68-1.918-0.104-0.758-0.334-1.348-0.689-1.768-0.359-0.426-0.526-0.694-0.501-0.806 0.03-0.106 0.112-0.219 0.246-0.338v0c0.357-0.317 0.771-0.209 1.242 0.322v0l0.646 0.85 2.163 2.682 2.876 3.008c0.295 0.333 0.343 0.587 0.145 0.763v0c-0.273 0.242-0.558 0.286-0.854 0.131-0.3-0.159-0.593-0.37-0.878-0.631-0.28-0.257-0.743-0.339-1.388-0.246-0.64 0.088-1.372 0.462-2.196 1.121-0.825 0.659-3.031 2.525-6.619 5.597-3.588 3.071-5.588 4.79-6 5.155v0l-1.184 1.048c-1.425 1.262-1.994 2.2-1.707 2.815 0.278 0.614 0.575 1.099 0.891 1.456v0c2.621 2.959 4.746 4.883 6.374 5.771v0c1.484 0.795 2.567 1.102 3.25 0.923v0c0.725-0.182 1.174-0.176 1.345 0.018v0c0.211 0.238 0.148 0.507-0.19 0.806v0c-0.849 0.752-2.084 1.088-3.705 1.009-1.621-0.079-2.711-0.434-3.269-1.065v0c-1.258-1.42-2.628-3.068-4.112-4.943-1.484-1.875-2.419-3.031-2.807-3.469v0l-3.516-3.49c-0.506-0.571-0.639-0.962-0.401-1.173v0c0.139-0.123 0.302-0.17 0.487-0.14 0.181 0.034 0.36 0.151 0.536 0.35 0.172 0.194 0.517 0.344 1.037 0.45 0.52 0.107 1.218-0.091 2.094-0.592 0.881-0.496 2.378-1.681 4.493-3.554zM79.792 253.978l2.206-4.38 3.182-6.051c0.322-0.64 0.839-1.724 1.549-3.252v0c0.322-0.699 0.296-1.377-0.078-2.033-0.378-0.666-0.937-1.2-1.677-1.603v0c-0.373-0.188-0.454-0.492-0.242-0.912v0c0.167-0.332 0.579-0.332 1.236-0.001v0l0.915 0.55 8.529 4.519 7.145 3.42c0.444 0.224 0.531 0.605 0.259 1.145v0c-0.072 0.142-0.377 0.571-0.916 1.287-0.542 0.722-0.925 1.305-1.149 1.75v0c-0.379 0.752-0.749 1.037-1.11 0.855-0.367-0.185-0.409-0.559-0.126-1.121 0.283-0.563 0.358-1.205 0.224-1.926-0.143-0.718-0.502-1.237-1.077-1.556v0c-2.037-1.234-3.621-2.136-4.752-2.706v0l-0.916-0.461c-1.226-0.618-1.976-0.891-2.248-0.821v0c-0.508 0.123-1.995 2.634-4.463 7.532v0c-0.594 1.179-0.672 1.893-0.233 2.144v0l3.465 1.746c1.41 0.71 2.375 1.137 2.897 1.281v0c1.34 0.378 2.341 0.114 3.005-0.792v0c0.271-0.361 0.525-0.482 0.762-0.363 0.237 0.119 0.361 0.227 0.373 0.322 0.012 0.095-0.041 0.258-0.157 0.489v0l-2.155 3.571-0.981 2.212c-0.295 0.586-0.526 0.838-0.692 0.755v0c-0.355-0.179-0.474-0.592-0.357-1.238v0c0.173-1.153 0.17-1.879-0.007-2.176v0c-0.33-0.582-1.106-1.181-2.326-1.795v0l-2.55-1.285-1.11-0.604-0.249-0.125c-0.966-0.486-1.562-0.504-1.788-0.054v0l-2.632 5.046-0.711 1.413c-0.856 1.7-1.038 2.782-0.544 3.246 0.485 0.467 0.941 0.808 1.367 1.023v0c3.53 1.778 6.228 2.784 8.094 3.018v0c1.649 0.177 2.769 0.062 3.36-0.345v0c0.583-0.449 0.99-0.616 1.22-0.5v0c0.284 0.143 0.325 0.416 0.122 0.819v0c-0.51 1.013-1.533 1.783-3.068 2.309-1.535 0.526-2.679 0.6-3.431 0.221v0c-1.694-0.853-3.578-1.876-5.65-3.069-2.073-1.193-3.37-1.92-3.891-2.182v0l-4.959-2.097c-0.498-0.251-0.687-0.494-0.567-0.732v0l0.215-0.426c0.069-0.136 0.233-0.168 0.494-0.097v0c0.273 0.108 0.744 0.167 1.414 0.178 0.676 0.014 1.308-0.348 1.894-1.084 0.592-0.734 1.554-2.422 2.885-5.064zM144.949 251.175l2.492 0.177 3.52 0.114c0.497 0.027 0.735 0.226 0.715 0.597v0c-0.016 0.285-0.319 0.544-0.91 0.777v0c-0.244 0.093-0.535 0.303-0.871 0.63-0.33 0.321-0.629 0.753-0.898 1.295v0l-9.914 19.583c-0.707 1.389-1.316 2.618-1.826 3.685-0.51 1.068-0.805 1.663-0.885 1.785-0.087 0.128-0.196 0.188-0.329 0.181v0c-0.477-0.026-1.015-0.939-1.613-2.739-0.605-1.807-1.572-4.397-2.901-7.771-1.336-3.375-2.36-6.005-3.074-7.891-0.713-1.886-1.225-3.272-1.535-4.159-0.31-0.894-0.601-1.69-0.875-2.39v0c-0.415-1.159-0.809-1.967-1.182-2.426-0.367-0.452-0.79-0.797-1.269-1.036-0.472-0.238-0.853-0.366-1.144-0.382v0c-0.738 0.013-1.093-0.243-1.064-0.766v0c0.02-0.371 0.398-0.536 1.133-0.496v0l4.332 0.398 2.577 0.061c0.603 0.033 0.969 0.08 1.099 0.141 0.13 0.06 0.19 0.176 0.18 0.348-0.009 0.166-0.15 0.307-0.422 0.425v0c-0.838 0.379-1.269 0.787-1.293 1.225-0.024 0.43 0.001 0.827 0.074 1.189 0.073 0.363 0.245 0.92 0.516 1.673 0.278 0.753 0.561 1.509 0.852 2.268 0.291 0.753 0.765 1.972 1.423 3.656 0.658 1.69 1.3 3.356 1.928 4.998v0c1.933 5.208 3.107 7.823 3.524 7.845v0c0.132 0.007 0.978-1.544 2.538-4.653 1.559-3.109 3.103-6.366 4.631-9.769 1.535-3.403 2.318-5.369 2.347-5.899 0.029-0.523-0.103-0.906-0.395-1.148-0.286-0.242-0.599-0.398-0.941-0.47v0c-0.941-0.158-1.403-0.393-1.386-0.704v0c0.01-0.185 0.063-0.295 0.158-0.33 0.095-0.035 0.324-0.042 0.688-0.022zM180.174 273.357l-3.103 1.072-3.149 1.299c-0.718 0.258-1.131 0.237-1.238-0.063v0c-0.123-0.343-0.023-0.644 0.3-0.9v0c0.685-0.584 1.143-1.499 1.372-2.744 0.223-1.243 0.6-4.895 1.13-10.955 0.53-6.061 1.013-11.41 1.448-16.048v0c0.04-0.437 0.111-0.731 0.213-0.88 0.095-0.147 0.274-0.267 0.536-0.361 0.262-0.094 0.449-0.105 0.559-0.032 0.111 0.073 0.369 0.361 0.775 0.863 0.397 0.499 0.706 0.878 0.926 1.137 0.218 0.253 0.572 0.672 1.065 1.256 0.489 0.578 1.247 1.441 2.271 2.589 1.031 1.145 3.333 3.631 6.906 7.457 3.575 3.833 5.621 5.998 6.137 6.496 0.513 0.506 1.109 0.881 1.788 1.123 0.675 0.251 1.213 0.326 1.613 0.224 0.4-0.102 0.744-0.154 1.032-0.159 0.294-0.007 0.493 0.137 0.598 0.43v0c0.134 0.375-0.132 0.682-0.8 0.922v0l-3.433 0.978-3.41 1.394c-0.768 0.276-1.269 0.42-1.504 0.434-0.235 0.014-0.388-0.079-0.46-0.279-0.069-0.194-0.025-0.382 0.135-0.566 0.159-0.184 0.345-0.335 0.556-0.453 0.205-0.116 0.374-0.303 0.507-0.563 0.133-0.259 0.121-0.604-0.033-1.034-0.157-0.437-0.847-1.387-2.07-2.851-1.232-1.468-2.199-2.523-2.902-3.165v0c-0.377-0.344-0.962-0.373-1.755-0.089v0l-4.477 1.692-1.976 0.709c-1.117 0.401-1.797 0.716-2.039 0.944-0.242 0.228-0.382 0.574-0.42 1.038-0.046 0.461-0.116 1.109-0.21 1.947-0.096 0.831-0.154 1.405-0.175 1.722-0.028 0.313-0.054 0.713-0.076 1.201v0c-0.058 0.859 0.003 1.539 0.182 2.038 0.177 0.493 0.463 0.838 0.858 1.034 0.395 0.197 0.773 0.258 1.134 0.185v0c0.945-0.255 1.487-0.185 1.628 0.208v0c0.063 0.175 0.072 0.319 0.029 0.434-0.037 0.112-0.193 0.217-0.468 0.316zM178.423 249.99c-0.225 0.081-0.441 1.705-0.649 4.874-0.202 3.166-0.249 4.899-0.142 5.199 0.108 0.3 0.284 0.448 0.529 0.444 0.252-0.006 0.786-0.155 1.604-0.449v0l1.161-0.417 3.517-1.305c0.968-0.347 1.386-0.702 1.256-1.064-0.13-0.362-1.292-1.696-3.487-4.001-2.201-2.303-3.464-3.397-3.789-3.281zM204.699 230.173c0.254-0.234 1.082-0.925 2.486-2.075 1.398-1.145 4.046-3.513 7.941-7.105 3.896-3.592 6.198-5.822 6.904-6.69v0c0.215-0.198 0.415-0.274 0.601-0.229 0.186 0.045 0.324 0.116 0.414 0.214v0l2.347 2.193c0.445 0.483 0.697 0.815 0.755 0.996 0.058 0.181-0.01 0.361-0.205 0.54v0c-0.156 0.144-0.472 0.065-0.948-0.235-0.467-0.301-0.857-0.504-1.172-0.611v0c-0.756-0.233-1.831 0.294-3.226 1.58v0l-3.781 3.486c-0.468 0.432-0.67 0.785-0.606 1.06 0.064 0.284 0.498 0.863 1.302 1.735v0l1.315 1.427 9.724 10.723 1.717 1.922c0.769 0.834 1.397 1.256 1.885 1.266 0.497 0.011 0.96-0.064 1.389-0.225 0.424-0.156 0.752-0.324 0.985-0.502v0c0.577-0.46 1.007-0.536 1.291-0.229v0c0.198 0.215 0.277 0.394 0.238 0.537-0.044 0.148-0.202 0.349-0.474 0.601v0l-3.442 2.739-2.781 2.943c-0.717 0.661-1.219 0.835-1.507 0.523v0c-0.175-0.19-0.236-0.373-0.182-0.549 0.054-0.176 0.227-0.444 0.519-0.803 0.296-0.363 0.484-0.6 0.564-0.709v0c0.514-0.763 0.525-1.49 0.032-2.181v0c-1.378-1.887-4.659-5.641-9.843-11.264v0l-4.831-5.181c-0.337-0.366-0.653-0.494-0.949-0.383-0.295 0.11-1.043 0.718-2.242 1.823-1.204 1.11-2.115 2.022-2.73 2.734-0.616 0.712-0.953 1.154-1.012 1.325-0.054 0.176-0.065 0.448-0.033 0.815 0.032 0.367 0.127 0.74 0.286 1.117 0.149 0.377 0.285 0.671 0.407 0.883v0c0.351 0.498 0.37 0.89 0.058 1.178v0c-0.21 0.193-0.465 0.127-0.766-0.2v0c-0.715-0.775-1.316-1.52-1.803-2.235-0.487-0.724-0.77-1.139-0.851-1.245-0.076-0.102-0.122-0.172-0.139-0.21-0.017-0.038-0.052-0.096-0.106-0.174-0.053-0.077-0.084-0.14-0.091-0.186-0.007-0.047-0.019-0.109-0.035-0.185-0.016-0.076-0.013-0.141 0.008-0.197 0.021-0.055 0.052-0.12 0.093-0.193v0c0.081-0.147 0.246-0.335 0.494-0.564zM251.564 203.836l-4.456-2.049-6.16-2.963c-0.651-0.299-1.753-0.777-3.305-1.432v0c-0.71-0.297-1.387-0.247-2.03 0.15-0.652 0.401-1.165 0.979-1.541 1.734v0c-0.175 0.38-0.476 0.471-0.904 0.274v0c-0.337-0.155-0.352-0.567-0.045-1.236v0l0.517-0.934 4.213-8.685 3.163-7.261c0.208-0.452 0.586-0.552 1.134-0.3v0c0.145 0.067 0.584 0.356 1.32 0.869 0.741 0.516 1.337 0.878 1.789 1.086v0c0.765 0.352 1.063 0.712 0.895 1.079-0.172 0.374-0.544 0.429-1.117 0.166-0.572-0.263-1.217-0.315-1.932-0.155-0.713 0.169-1.218 0.546-1.517 1.131v0c-1.161 2.08-2.006 3.695-2.535 4.846v0l-0.428 0.931c-0.574 1.247-0.82 2.006-0.74 2.277v0c0.141 0.503 2.703 1.9 7.687 4.191v0c1.199 0.551 1.916 0.604 2.151 0.157v0l1.621-3.525c0.659-1.434 1.052-2.415 1.177-2.941v0c0.33-1.352 0.03-2.344-0.899-2.976v0c-0.37-0.258-0.5-0.507-0.389-0.748 0.111-0.241 0.213-0.369 0.308-0.384 0.094-0.015 0.259 0.032 0.494 0.139v0l3.645 2.027 2.246 0.901c0.597 0.274 0.856 0.496 0.779 0.665v0c-0.166 0.362-0.574 0.495-1.224 0.401v0c-1.159-0.131-1.883-0.103-2.175 0.084v0c-0.57 0.351-1.141 1.147-1.711 2.389v0l-1.193 2.594-0.564 1.131-0.116 0.253c-0.452 0.982-0.448 1.579 0.009 1.789v0l5.138 2.45 1.437 0.661c1.729 0.795 2.817 0.938 3.263 0.427 0.45-0.501 0.774-0.969 0.974-1.403v0c1.651-3.592 2.561-6.323 2.728-8.195v0c0.118-1.654-0.037-2.769-0.466-3.346v0c-0.47-0.566-0.65-0.967-0.542-1.202v0c0.133-0.289 0.404-0.34 0.814-0.151v0c1.03 0.474 1.836 1.468 2.417 2.984 0.581 1.515 0.695 2.656 0.343 3.42v0c-0.792 1.723-1.748 3.642-2.865 5.757-1.118 2.114-1.799 3.436-2.043 3.966v0l-1.919 5.031c-0.233 0.506-0.47 0.704-0.71 0.593v0l-0.434-0.2c-0.139-0.064-0.177-0.227-0.114-0.49v0c0.098-0.276 0.14-0.749 0.127-1.42-0.01-0.676-0.394-1.294-1.151-1.854-0.754-0.566-2.476-1.467-5.164-2.703zM5.341 145.252c0-5.959 4.831-10.789 10.789-10.79 5.959 0 10.789 4.831 10.79 10.79 0 5.959-4.831 10.789-10.79 10.789-5.959 0-10.789-4.831-10.789-10.789zM256.054 145.252c0-5.959 4.831-10.789 10.79-10.79 5.959 0 10.789 4.831 10.789 10.79 0 5.959-4.831 10.789-10.789 10.789-5.959 0-10.789-4.831-10.79-10.789z" fill="#ba3b0a" data-fill-palette-color="primary"></path></svg></g></svg></g></svg></g></svg></g></svg><rect width="280" height="280" fill="none" stroke="none" visibility="hidden"></rect></g></svg></g></svg>